#!OML:ASF H:\GeneralSubjects\Female5\Project 1\Capture day 1\Session 1\Female5.ASF
:FULLY-SPECIFIED
:DEGREES
281
root 3.34928 16.3836 0.401986 162.038 -62.3207 183.796
lowerback 21.6368 1.88829 1.47078
upperback -3.15632 3.68208 6.01991
thorax -16.3063 1.84225 4.90037
lowerneck -16.9597 3.79212 4.60481
upperneck 34.976 6.06955 -8.84267
head 15.6406 1.39981 -3.6391
rclavicle 4.77083e-015 -1.24042e-013
rhumerus -74.5292 33.1507 -105.629
rradius 32.6928
rwrist -25.3918
rhand -19.4556 -1.32748
rfingers 7.12502
rthumb 6.86539 -31.1962
lclavicle 4.77083e-015 -1.24042e-013
lhumerus -44.8303 -12.1745 91.0192
lradius 51.7628
lwrist 4.2509
lhand -32.4932 34.3586
lfingers 7.12502
lthumb -5.72491 64.2613
rfemur -18.7409 -23.3843 27.7636
rtibia 66.2456
rfoot -22.4804 7.98803
rtoes -10.7863
lfemur -29.3934 7.47414 -25.7196
ltibia 82.6699
lfoot -4.53765 -5.88459
ltoes -67.7359
282
root 3.36465 16.3847 0.42232 161.847 -61.9226 183.702
lowerback 21.7293 1.93369 1.44175
upperback -2.97573 3.70726 5.84355
thorax -16.1275 1.84264 4.69041
lowerneck -16.5851 4.00405 5.07481
upperneck 34.9094 6.13373 -8.56669
head 15.5286 1.54263 -3.58579
rclavicle -5.56597e-014 -4.77083e-015
rhumerus -72.8304 35.4583 -103.433
rradius 33.1415
rwrist -24.6234
rhand -19.5255 -2.41001
rfingers 7.12502
rthumb 6.79787 -32.2809
lclavicle -5.56597e-014 -4.77083e-015
lhumerus -43.7199 -13.8432 91.2794
lradius 52.2793
lwrist 3.14611
lhand -31.372 33.4145
lfingers 7.12502
lthumb -4.64238 63.3437
rfemur -19.4035 -22.4973 28.164
rtibia 67.0527
rfoot -23.4613 7.74339
rtoes -10.8875
lfemur -30.1001 7.91759 -25.4765
ltibia 82.2738
lfoot 0.518796 -4.91206
ltoes -67.6237
283
root 3.37948 16.3794 0.445479 162.025 -61.6697 183.199
lowerback 21.8128 1.93586 1.20715
upperback -2.80991 3.61432 5.60513
thorax -15.9606 1.80814 4.56942
lowerneck -16.9778 4.11379 6.15741
upperneck 35.3718 6.14078 -9.17598
head 15.9292 1.58388 -4.08051
rclavicle -1.35174e-014 -9.54166e-015
rhumerus -70.8026 37.8139 -101.126
rradius 33.5618
rwrist -23.773
rhand -20.5786 -2.82031
rfingers 7.12502
rthumb 5.78125 -32.7214
lclavicle -1.35174e-014 -9.54166e-015
lhumerus -42.8386 -15.522 91.3148
lradius 53.4457
lwrist 1.86612
lhand -31.0011 33.3326
lfingers 7.12502
lthumb -4.28423 63.2693
rfemur -20.1575 -21.981 28.1493
rtibia 68.0115
rfoot -24.503 7.28225
rtoes -10.3149
lfemur -30.778 8.29763 -25.5942
ltibia 81.7885
lfoot 5.31956 -4.00326
ltoes -67.9039
284
root 3.39408 16.3637 0.464673 162.169 -61.547 182.701
lowerback 21.9974 1.90948 1.03902
upperback -2.7531 3.50465 5.28319
thorax -15.9751 1.7581 4.3219
lowerneck -16.5097 4.1959 6.51428
upperneck 35.2863 6.04677 -8.90481
head 15.7629 1.64209 -4.0354
rclavicle 3.29983e-014 -1.90833e-014
rhumerus -68.5912 39.8413 -98.7283
rradius 33.8862
rwrist -22.7031
rhand -20.7823 -2.87897
rfingers 7.12502
rthumb 5.58458 -32.7854
lclavicle 3.29983e-014 -1.90833e-014
lhumerus -42.2407 -17.4865 91.2483
lradius 54.8741
lwrist 0.885516
lhand -31.0551 33.5863
lfingers 7.12502
lthumb -4.33633 63.5219
rfemur -20.7791 -21.9165 27.9597
rtibia 68.9081
rfoot -25.59 6.934
rtoes -9.96704
lfemur -31.4201 8.63468 -25.8016
ltibia 81.4813
lfoot 7.81853 -4.3188
ltoes -69.4384
285
root 3.41342 16.3415 0.480936 161.803 -61.3582 182.887
lowerback 22.2402 1.8801 1.32573
upperback -2.8632 3.52717 4.96604
thorax -16.2107 1.72598 3.77579
lowerneck -16.2854 4.13036 6.51373
upperneck 35.7039 5.72299 -8.3369
head 15.8525 1.57112 -3.87065
rclavicle -5.96354e-015 -3.65764e-014
rhumerus -66.3453 41.5995 -96.5855
rradius 33.9082
rwrist -21.7388
rhand -20.4076 -2.72633
rfingers 7.12502
rthumb 5.94628 -32.6229
lclavicle -5.96354e-015 -3.65764e-014
lhumerus -41.7213 -19.8351 91.1301
lradius 56.1464
lwrist 0.245278
lhand -31.293 33.5096
lfingers 7.12502
lthumb -4.5661 63.4404
rfemur -21.4933 -21.7973 28.2975
rtibia 69.7073
rfoot -26.5075 6.95721
rtoes -10.4868
lfemur -32.3485 9.10884 -25.7532
ltibia 81.6171
lfoot 12.0183 -3.87029
ltoes -69.4345
286
root 3.43149 16.3129 0.496986 161.687 -61.2013 182.912
lowerback 22.3779 1.89938 1.48025
upperback -2.98512 3.57907 4.67799
thorax -16.4112 1.72039 3.32988
lowerneck -16.4106 4.2002 6.92983
upperneck 36.0603 5.63802 -8.22806
head 16.0659 1.59703 -3.93605
rclavicle 2.26615e-014 -6.99722e-014
rhumerus -64.0976 43.4058 -94.6331
rradius 33.7775
rwrist -20.9994
rhand -20.5542 -2.45515
rfingers 7.12502
rthumb 5.80475 -32.3556
lclavicle 2.26615e-014 -6.99722e-014
lhumerus -40.9416 -22.2588 90.9026
lradius 57.1713
lwrist -0.212282
lhand -31.7835 32.797
lfingers 7.12502
lthumb -5.03973 62.7171
rfemur -22.3764 -21.6848 28.6008
rtibia 70.5051
rfoot -27.4172 7.14042
rtoes -10.211
lfemur -33.5183 9.66079 -26.0141
ltibia 82.3131
lfoot 13.5114 -3.72839
ltoes -68.6417
287
root 3.44441 16.2766 0.513223 161.654 -61.1376 182.84
lowerback 22.4985 1.92658 1.6715
upperback -3.13245 3.6458 4.33575
thorax -16.6262 1.71352 2.7936
lowerneck -16.2755 4.03153 6.86403
upperneck 36.3202 5.21828 -7.77101
head 16.0942 1.46788 -3.81434
rclavicle 1.37161e-014 1.66979e-014
rhumerus -61.8627 44.8049 -92.5744
rradius 33.7422
rwrist -19.7063
rhand -20.8399 -2.12643
rfingers 7.12502
rthumb 5.52894 -32.0343
lclavicle 1.37161e-014 1.66979e-014
lhumerus -39.8682 -24.808 90.5195
lradius 57.8296
lwrist -0.518034
lhand -32.3899 32.0402
lfingers 7.12502
lthumb -5.62518 61.9455
rfemur -23.1234 -21.8319 28.6852
rtibia 71.1436
rfoot -28.256 7.2438
rtoes -9.13937
lfemur -34.7034 10.1331 -26.5389
ltibia 83.5024
lfoot 14.135 -3.20044
ltoes -68.662
288
root 3.45341 16.2394 0.526597 161.128 -61.0671 183.297
lowerback 22.5374 1.90762 2.07543
upperback -3.26067 3.71928 4.13099
thorax -16.7661 1.69412 2.29586
lowerneck -16.2602 3.89416 6.52665
upperneck 36.7628 4.85853 -7.13591
head 16.2397 1.34295 -3.56386
rclavicle -4.27387e-014 -5.40694e-014
rhumerus -59.7489 46.1547 -90.5745
rradius 33.7361
rwrist -18.1125
rhand -21.1734 -1.81175
rfingers 7.12502
rthumb 5.2069 -31.7278
lclavicle -4.27387e-014 -5.40694e-014
lhumerus -38.4835 -27.1515 90.0613
lradius 58.2105
lwrist -0.724769
lhand -32.4873 31.9274
lfingers 7.12502
lthumb -5.71923 61.8303
rfemur -23.5959 -21.9641 28.9766
rtibia 71.4451
rfoot -28.8623 7.59906
rtoes -10.4521
lfemur -35.8562 10.4728 -26.8612
ltibia 84.8957
lfoot 14.5986 -2.08333
ltoes -68.2684
289
root 3.45962 16.2072 0.538304 160.438 -61.0892 183.859
lowerback 22.4528 1.86854 2.21661
upperback -3.23504 3.7048 4.17456
thorax -16.677 1.67646 2.27269
lowerneck -16.4459 3.8331 6.14021
upperneck 37.1256 4.72501 -6.74258
head 16.4307 1.27322 -3.36471
rclavicle 1.35174e-014 -6.36111e-014
rhumerus -57.6593 47.912 -88.5899
rradius 33.639
rwrist -16.9476
rhand -21.6832 -1.59559
rfingers 7.12502
rthumb 4.71467 -31.5231
lclavicle 1.35174e-014 -6.36111e-014
lhumerus -36.8229 -29.0959 89.6344
lradius 58.2748
lwrist -0.964059
lhand -32.0448 32.4269
lfingers 7.12502
lthumb -5.29203 62.3408
rfemur -23.8359 -22.037 29.2334
rtibia 71.6146
rfoot -29.7742 5.46405
rtoes -5.1167
lfemur -36.8414 10.5779 -27.2022
ltibia 86.2717
lfoot 15.374 -0.977198
ltoes -67.6433
290
root 3.46981 16.181 0.550752 159.525 -61.1773 184.565
lowerback 22.4348 1.83599 2.3637
upperback -3.13534 3.70328 4.26445
thorax -16.5412 1.66592 2.29356
lowerneck -16.652 3.78519 6.12659
upperneck 37.3752 4.63213 -6.72204
head 16.6028 1.22642 -3.38576
rclavicle 6.95746e-015 2.94201e-014
rhumerus -55.3781 49.3912 -86.4903
rradius 33.3512
rwrist -15.7473
rhand -22.3764 -1.20346
rfingers 7.12502
rthumb 4.0453 -31.1448
lclavicle 6.95746e-015 2.94201e-014
lhumerus -34.703 -30.7026 89.0616
lradius 58.1017
lwrist -1.30856
lhand -31.5649 33.2368
lfingers 7.12502
lthumb -4.82859 63.1618
rfemur -23.7908 -22.2182 29.4646
rtibia 71.6161
rfoot -30.4296 3.32669
rtoes 0.530981
lfemur -37.5996 10.3566 -27.3973
ltibia 87.5344
lfoot 17.1117 0.249994
ltoes -66.8463
291
root 3.48084 16.1635 0.562739 158.415 -61.2348 185.487
lowerback 22.4654 1.79072 2.53385
upperback -3.06586 3.70223 4.41384
thorax -16.4762 1.65603 2.37098
lowerneck -16.9239 3.7636 6.05868
upperneck 37.6389 4.55611 -6.58783
head 16.7962 1.19577 -3.3429
rclavicle -4.37326e-015 -3.33958e-014
rhumerus -53.2395 50.8162 -84.6294
rradius 33.0501
rwrist -14.454
rhand -23.0423 -0.736823
rfingers 7.12502
rthumb 3.40223 -30.6894
lclavicle -4.37326e-015 -3.33958e-014
lhumerus -32.4884 -32.1269 88.4709
lradius 57.6719
lwrist -1.15648
lhand -31.713 33.443
lfingers 7.12502
lthumb -4.97163 63.3646
rfemur -23.6756 -22.4243 29.8073
rtibia 71.5648
rfoot -31.0752 1.33594
rtoes 6.23478
lfemur -38.1924 9.85289 -27.3015
ltibia 88.6672
lfoot 19.1067 1.04055
ltoes -66.372
292
root 3.48172 16.1529 0.572522 157.661 -61.3369 186.091
lowerback 22.319 1.75123 2.34778
upperback -3.00099 3.61076 4.64159
thorax -16.3369 1.64677 2.77898
lowerneck -16.5592 3.60393 5.56162
upperneck 37.65 4.3297 -6.21619
head 16.6564 1.07774 -3.12941
rclavicle -5.00937e-014 -4.69132e-014
rhumerus -51.4799 52.5751 -83.0738
rradius 33.0628
rwrist -13.3536
rhand -23.5216 -0.826622
rfingers 7.12502
rthumb 2.93939 -30.7861
lclavicle -5.00937e-014 -4.69132e-014
lhumerus -30.5609 -33.0346 88.0454
lradius 57.2706
lwrist -0.80926
lhand -32.2605 33.1034
lfingers 7.12502
lthumb -5.50029 63.012
rfemur -23.7101 -22.627 29.9693
rtibia 71.7789
rfoot -31.4439 -0.749313
rtoes 11.8445
lfemur -38.6336 9.18541 -27.3106
ltibia 89.6756
lfoot 21.2598 1.23412
ltoes -66.0969
293
root 3.47857 16.1464 0.580214 157.208 -61.4849 186.385
lowerback 22.0418 1.74534 2.06603
upperback -2.90978 3.51864 4.76409
thorax -16.0823 1.64082 3.11752
lowerneck -16.7731 3.75073 5.71458
upperneck 37.8723 4.40826 -5.99043
head 16.8344 1.16143 -3.05087
rclavicle -1.35174e-014 2.94201e-014
rhumerus -49.827 53.8846 -81.5824
rradius 33.3827
rwrist -12.3201
rhand -23.9877 -0.925526
rfingers 7.12502
rthumb 2.48926 -30.8907
lclavicle -1.35174e-014 2.94201e-014
lhumerus -28.7826 -33.7321 87.6186
lradius 57.0233
lwrist -0.513789
lhand -32.9526 32.4602
lfingers 7.12502
lthumb -6.16841 62.3504
rfemur -23.6615 -22.8111 29.8987
rtibia 72.0164
rfoot -31.1958 -3.09809
rtoes 16.8087
lfemur -38.9635 8.57977 -27.4796
ltibia 90.618
lfoot 23.2777 0.712693
ltoes -65.1523
294
root 3.47943 16.143 0.587208 156.492 -61.4838 186.927
lowerback 21.8965 1.79146 2.06233
upperback -2.86873 3.57493 4.81437
thorax -15.9521 1.66932 3.15866
lowerneck -16.5584 3.66873 5.70083
upperneck 37.9101 4.15357 -5.65941
head 16.765 1.10165 -2.94849
rclavicle -3.39922e-014 -3.57812e-014
rhumerus -48.4051 54.4551 -80.3428
rradius 33.8108
rwrist -11.357
rhand -24.2516 -0.311978
rfingers 7.12502
rthumb 2.23438 -30.28
lclavicle -3.39922e-014 -3.57812e-014
lhumerus -27.2003 -34.5637 87.2123
lradius 56.9507
lwrist -0.300537
lhand -33.2305 31.9032
lfingers 7.12502
lthumb -6.43669 61.7854
rfemur -23.3896 -22.7289 30.0062
rtibia 71.9153
rfoot -30.7831 -5.42892
rtoes 21.0759
lfemur -39.2386 8.2179 -27.428
ltibia 91.526
lfoot 25.0172 -0.265466
ltoes -64.659
